<?xml version="1.0" standalone="no"?>
<!DOCTYPE svg PUBLIC "-//W3C//DTD SVG 20010904//EN"
 "http://www.w3.org/TR/2001/REC-SVG-20010904/DTD/svg10.dtd">
<svg version="1.0" xmlns="http://www.w3.org/2000/svg"
 width="640.000000pt" height="640.000000pt" viewBox="0 0 640.000000 640.000000"
 preserveAspectRatio="xMidYMid meet">
<metadata>
Created by potrace 1.14, written by Peter Selinger 2001-2017
</metadata>
<g transform="translate(0.000000,640.000000) scale(0.100000,-0.100000)"
fill="#000000" stroke="none">
<path d="M1003 5745 c-153 -41 -279 -155 -333 -300 -24 -67 -31 -131 -29 -280
0 -55 1 -107 0 -115 0 -8 0 -80 0 -160 0 -80 1 -152 0 -160 0 -8 0 -91 0 -185
0 -93 -1 -192 -2 -220 -1 -27 -1 -57 0 -65 1 -8 1 -31 0 -50 -1 -19 -1 -42 0
-50 0 -8 0 -40 0 -70 -1 -30 -1 -62 0 -70 1 -8 1 -31 0 -50 -1 -19 -1 -42 0
-50 0 -8 0 -40 0 -70 -1 -30 -1 -62 0 -70 1 -8 1 -31 0 -50 -1 -19 -1 -42 0
-50 0 -8 0 -40 0 -70 -1 -30 -1 -62 0 -70 1 -8 1 -31 0 -50 -1 -19 -1 -42 0
-50 0 -8 0 -40 0 -70 -1 -30 -1 -61 0 -67 0 -7 0 -52 0 -100 1 -49 1 -153 2
-233 0 -80 1 -152 0 -160 0 -8 0 -103 0 -210 0 -107 0 -202 0 -210 0 -8 0 -33
0 -55 0 -22 0 -49 -1 -60 -2 -27 -2 -32 -1 -95 0 -30 0 -62 0 -70 0 -8 0 -31
1 -50 2 -19 1 -39 0 -45 -1 -5 -2 -29 -1 -52 l1 -42 48 0 c101 -1 146 0 154 5
4 3 8 2 8 -3 0 -8 172 -8 218 0 12 2 22 1 22 -2 0 -3 26 -5 57 -4 32 1 92 2
133 2 41 0 91 1 110 2 19 1 41 1 48 0 6 -1 18 -1 25 -2 13 -1 111 0 167 2 19
1 40 1 45 0 84 -5 145 -4 145 2 0 5 5 5 10 2 9 -5 49 -6 180 -4 8 0 48 -1 88
-3 39 -2 72 1 72 5 0 5 4 6 9 3 5 -3 76 -6 157 -6 273 0 328 -1 336 -6 4 -3 8
-2 8 3 0 4 27 8 60 8 33 0 60 -2 60 -5 0 -3 26 -4 57 -3 32 1 58 2 58 3 0 1
28 2 63 3 34 1 62 0 62 -3 0 -3 28 -4 62 -2 35 1 88 2 118 1 30 0 62 0 70 0 8
1 31 1 50 0 19 0 42 0 50 0 8 0 40 0 70 0 30 -1 64 0 75 1 11 1 25 1 30 1 57
0 93 0 105 0 8 0 67 0 130 0 63 0 122 0 130 0 8 0 48 -1 88 -3 39 -2 72 1 72
5 0 5 4 6 9 3 5 -3 73 -6 152 -6 79 0 185 0 234 -1 140 0 188 2 197 7 4 3 8 2
8 -3 0 -8 172 -8 218 0 12 2 22 1 22 -2 0 -3 26 -5 57 -4 32 1 92 2 133 2 41
0 91 1 110 2 19 1 41 1 48 0 6 -1 18 -1 25 -2 13 -1 111 0 167 2 19 1 40 1 45
1 6 -1 63 -2 128 -4 113 -3 118 -2 116 17 -1 11 0 22 0 25 5 13 5 120 1 120
-3 0 -4 28 -3 62 1 35 2 63 3 63 1 0 2 26 3 58 1 31 0 57 -3 57 -3 0 -5 27 -5
60 0 33 2 60 5 60 3 0 4 46 3 102 -2 101 -3 198 -2 228 0 8 0 31 0 50 -1 19
-1 42 0 50 0 8 0 40 0 70 0 30 0 62 0 70 0 8 0 31 0 50 -1 19 -1 42 0 50 0 8
0 40 0 70 -1 30 0 83 1 118 2 34 1 62 -2 62 -3 0 -4 28 -3 62 1 35 2 63 3 63
1 0 2 26 3 58 1 31 0 57 -3 57 -3 0 -5 27 -5 60 0 33 2 60 5 60 3 0 4 46 3
102 -2 101 -3 198 -2 228 0 8 0 31 0 50 -1 19 -1 42 0 50 0 8 0 40 0 70 0 30
0 62 0 70 0 8 0 31 0 50 -1 19 -1 42 0 50 0 8 0 40 0 70 -1 30 0 83 1 118 2
34 1 62 -2 62 -3 0 -4 28 -3 62 1 35 2 63 3 63 1 0 2 26 3 58 1 31 0 57 -3 57
-3 0 -5 27 -5 60 0 33 2 60 5 60 13 0 -4 366 -19 417 -18 62 -74 152 -124 203
-60 59 -166 115 -246 130 -35 6 -806 10 -2185 9 -1801 0 -2139 -3 -2183 -14z
m427 -622 c0 4 4 6 9 3 7 -5 77 -8 121 -5 8 1 29 0 45 0 37 -2 145 -3 165 -2
8 1 31 1 50 0 19 0 42 0 50 0 8 0 40 0 70 0 30 0 62 0 70 0 8 1 31 1 50 0 19
0 42 0 50 0 8 0 40 0 70 0 30 0 62 0 70 0 8 1 31 1 50 0 19 0 42 0 50 0 8 0
40 0 70 0 30 0 60 -1 65 -1 6 0 71 1 145 1 74 0 144 0 155 0 11 0 85 0 165 0
80 0 152 0 160 0 8 0 80 0 160 0 80 0 152 0 160 0 8 0 80 0 160 0 80 0 150 0
155 0 85 2 228 2 231 -1 2 -3 27 -2 54 2 28 4 53 3 56 -2 3 -5 9 -6 13 -4 7 5
99 7 141 5 8 -1 31 -1 50 0 19 1 42 1 50 0 8 -1 40 -1 70 0 30 0 62 0 70 0 8
-1 31 -1 50 0 19 1 42 1 50 0 8 -1 40 -1 70 0 30 0 62 0 70 0 8 -1 31 -1 50 0
19 1 42 1 50 0 8 -1 40 -1 70 0 30 0 62 0 70 0 8 -1 32 -1 53 0 107 3 107 3
107 -21 0 -13 0 -32 0 -43 1 -31 1 -148 1 -162 -1 -7 -2 -19 -2 -25 -1 -7 -1
-42 0 -78 0 -36 1 -72 0 -80 0 -8 0 -80 0 -160 0 -80 0 -152 0 -160 0 -8 0
-80 0 -160 0 -80 0 -152 0 -160 0 -8 0 -80 0 -160 0 -80 0 -152 0 -160 0 -8 0
-80 0 -160 0 -80 0 -152 0 -160 0 -8 0 -80 0 -160 0 -80 0 -152 0 -160 0 -8 0
-80 0 -160 0 -80 0 -152 0 -160 0 -8 0 -59 1 -114 1 -54 -3 -103 -8 -108 -9
-9 -15 -10 -87 -9 -57 1 -74 1 -130 0 -27 0 -57 0 -65 0 -8 1 -33 1 -55 0 -38
-1 -47 0 -77 2 -7 1 -38 1 -68 0 -30 0 -62 0 -70 0 -8 1 -31 1 -50 0 -19 -1
-42 -1 -50 0 -8 1 -40 1 -70 0 -30 0 -62 0 -70 0 -8 1 -31 1 -50 0 -19 -1 -42
-1 -50 0 -8 1 -40 1 -70 0 -30 0 -62 0 -70 0 -8 1 -31 1 -50 0 -19 -1 -42 -1
-50 0 -13 1 -309 1 -365 0 -11 0 -85 0 -165 0 -80 0 -152 0 -160 0 -8 0 -80 0
-160 0 -80 0 -152 0 -160 0 -8 0 -80 0 -160 0 -80 0 -152 0 -160 0 -60 -2
-195 1 -202 5 -4 3 -8 2 -8 -3 0 -4 -27 -8 -60 -8 -33 0 -60 2 -60 5 0 3 -26
4 -57 3 -32 -1 -58 -2 -58 -3 0 -1 -28 -2 -63 -3 -34 -1 -62 0 -62 3 0 3 -26
4 -57 3 -32 -1 -58 -2 -58 -3 0 -1 -28 -2 -63 -3 -34 -1 -62 0 -62 3 0 3 -26
4 -57 3 -32 -1 -58 -2 -58 -3 0 -1 -28 -2 -63 -3 -34 -1 -62 0 -62 3 0 4 -109
4 -117 0 -3 -1 -97 -2 -162 -1 l-39 1 -1 73 c-1 39 -2 79 -2 87 -1 8 -1 31 0
50 2 56 3 154 2 168 -1 6 -1 18 -2 25 -1 6 -1 28 0 47 2 56 3 154 2 168 -1 6
-1 18 -2 25 -1 6 -1 28 0 47 2 56 3 154 2 168 -1 6 -1 18 -2 25 -1 6 -1 28 0
47 2 56 3 154 2 168 -1 6 -1 18 -2 25 -1 6 -1 28 0 47 2 56 3 154 2 168 -1 6
-1 18 -2 25 -1 6 -1 28 0 47 2 56 3 154 2 168 -1 6 -1 18 -2 25 -1 6 -1 28 0
47 2 56 3 154 2 168 -1 6 -1 18 -2 25 -1 6 -1 28 0 47 2 56 3 154 2 168 -1 6
-1 18 -2 25 -1 6 -1 28 0 47 2 56 3 154 2 168 -2 31 -3 39 -1 77 1 22 1 45 0
50 -1 6 -2 38 -1 72 1 70 4 72 99 62 28 -3 52 -1 52 4z"/>
<path d="M2614 4574 c-32 -12 -107 -81 -355 -329 -173 -173 -319 -327 -326
-342 -15 -35 -15 -79 0 -121 8 -22 117 -139 321 -343 171 -170 314 -309 318
-309 4 0 8 -4 8 -8 0 -16 65 -28 108 -20 49 8 93 40 174 126 75 80 89 133 57
212 -5 14 -93 108 -194 209 -102 101 -185 187 -185 191 0 3 85 92 189 197 199
200 215 224 204 295 -8 52 -26 78 -106 155 -96 93 -141 112 -213 87z"/>
<path d="M3713 4579 c-51 -9 -88 -36 -170 -124 -80 -84 -98 -150 -60 -220 5
-11 94 -104 197 -207 l187 -188 -192 -193 c-203 -204 -220 -227 -208 -299 8
-53 27 -79 110 -159 59 -57 90 -78 122 -86 85 -22 97 -14 441 331 172 172 316
320 322 329 5 9 11 33 14 53 10 82 4 90 -328 421 -172 172 -315 315 -319 317
-21 20 -78 32 -116 25z"/>
<path d="M185 1600 c-3 -4 -15 -5 -28 -3 -36 7 -91 -21 -123 -63 l-29 -38 1
-160 c0 -89 4 -172 7 -186 4 -14 9 -36 12 -49 2 -13 23 -63 47 -109 32 -66 60
-103 120 -164 44 -43 85 -78 93 -78 8 0 15 -4 15 -9 0 -13 143 -72 212 -87 52
-11 524 -13 2693 -13 2835 -1 2681 -3 2800 50 28 12 53 23 57 23 4 1 13 7 19
14 7 6 17 12 21 12 17 0 128 104 176 165 40 51 85 150 109 240 3 11 8 88 10
170 6 176 -2 207 -65 253 -35 25 -49 29 -106 28 -36 -1 -66 1 -66 4 0 6 -109
4 -116 -2 -2 -3 -24 -2 -49 2 -24 4 -50 3 -57 -1 -6 -4 -15 -6 -20 -3 -7 4
-226 6 -501 3 -60 0 -110 1 -113 3 -2 3 -27 2 -54 -2 -28 -4 -53 -3 -56 2 -3
5 -9 6 -13 4 -4 -3 -34 -5 -67 -5 -32 -1 -77 -2 -99 -2 -22 -1 -44 -1 -50 -1
-5 1 -100 1 -210 1 -319 1 -378 2 -387 7 -4 3 -8 1 -8 -4 0 -4 -23 -6 -50 -2
-28 4 -53 4 -55 0 -2 -4 -24 -4 -47 0 -24 3 -54 3 -68 0 -14 -4 -36 -4 -50 0
-14 3 -38 4 -55 0 -16 -3 -50 -3 -75 0 -25 3 -66 4 -92 2 -51 -3 -53 -6 -64
-76 -15 -101 -118 -210 -218 -232 -65 -15 -189 -20 -207 -8 -5 3 -9 0 -9 -6 0
-6 -4 -9 -9 -6 -10 6 -78 8 -174 4 -37 -2 -67 0 -67 3 0 3 -20 3 -45 -1 -25
-4 -48 -3 -51 2 -3 4 -10 6 -15 2 -10 -6 -87 -6 -162 0 -61 5 -143 45 -194 95
-44 43 -91 131 -100 186 -5 34 -21 43 -65 36 -12 -1 -62 -2 -103 0 -22 0 -44
0 -50 -1 -5 -1 -14 -2 -18 -1 -5 1 -29 1 -55 1 -26 0 -56 0 -67 0 -23 -1 -95
-1 -110 -1 -5 0 -98 0 -205 0 -107 1 -244 1 -303 0 -60 0 -110 1 -113 3 -2 3
-27 2 -54 -2 -28 -4 -53 -3 -56 2 -3 5 -9 6 -13 4 -4 -3 -34 -5 -67 -5 -32 -1
-77 -2 -99 -2 -22 -1 -44 -1 -50 -1 -5 1 -100 1 -210 1 -319 1 -378 2 -387 7
-4 3 -8 2 -8 -3 0 -4 -27 -8 -60 -8 -33 0 -60 2 -60 5 0 3 -25 5 -55 5 -30 0
-55 -3 -55 -6 0 -3 -23 -3 -50 1 -28 4 -53 3 -55 0z"/>
</g>
</svg>
